<svg id="Layer_1" data-name="Layer 1" xmlns="http://www.w3.org/2000/svg" viewBox="0 0 309 40.6"><defs><style>.cls-1{fill:#fff;}.cls-2{fill:#231f20;}.cls-3{fill:#005596;}.cls-4{fill:#ee2a24;}</style></defs><title>USCCF_logo_web_ProximaNova_ExtraCondensed_ALL</title><circle class="cls-1" cx="20.31" cy="20.3" r="19.76"/><path class="cls-2" d="M20.31.3a20,20,0,1,0,20,20A20,20,0,0,0,20.31.3Zm0,39.71A19.71,19.71,0,1,1,40,20.3,19.71,19.71,0,0,1,20.31,40Z"/><path class="cls-2" d="M4.8,19.5l-.95-.06-.34-.83-.34.83-.94.06.7.64-.21.93.8-.52.8.52-.24-.93ZM4.24,21l-.72-.64L2.79,21l.35-.89-.79-.54,1,.07.22-.9.22.9,1-.07-.82.54Z"/><path class="cls-2" d="M38.51,19.5l-.95-.06-.34-.83-.34.83-.94.06.7.64-.21.93.8-.52.8.52-.24-.93ZM37.95,21l-.72-.64L36.5,21l.35-.89-.79-.54,1,.07.22-.9.22.9,1-.07-.82.54Z"/><path class="cls-2" d="M4.58,11.87l1.78,1-.08.19.1.06.59-1a1.22,1.22,0,0,1,.26-.34l-.56-.54-.07.1a.84.84,0,0,1,.09,1,1.57,1.57,0,0,1-.16.23l-.91-.53L5.69,12c.11-.19.2-.23.51-.13l.06-.1-.75-.44-.06.1c.24.22.25.32.14.51L5.51,12l-.77-.45a1.46,1.46,0,0,1,.13-.25.76.76,0,0,1,.87-.41l0-.1-.67-.22a1.2,1.2,0,0,1-.17.39l-.57,1,.1.06Z"/><path class="cls-2" d="M20.27,4.57l-.2,0v-1h.16c.22,0,.3.06.37.37h.11V3H20.6c-.07.31-.15.37-.37.37h-.15v-1h.22a.85.85,0,0,1,.81.6l.11,0-.16-.75a1.22,1.22,0,0,1-.42,0h-1.1v.12l.2,0V4.54l-.2,0v.12h.72Z"/><path class="cls-2" d="M25.06,5.31c-.21-.07-.2-.27-.15-.42l.46-1.35h0l.57,2.19.12,0L26.67,4c.06-.18.14-.33.36-.27l0-.11-.61-.21,0,.11c.21.09.2.2.13.4l-.43,1.24h0l-.51-2L25.12,3l0,.11c.21.07.23.2.19.3l-.52,1.5a.28.28,0,0,1-.36.19l0,.11.66.23Z"/><path class="cls-2" d="M23.91,5.15l.32-.71-.11,0a.84.84,0,0,1-1,.43,1.56,1.56,0,0,1-.27-.07l.2-1,.16,0c.21,0,.29.11.29.43l.11,0,.16-.85-.11,0c-.13.3-.22.34-.43.3l-.15,0,.17-.88a1.7,1.7,0,0,1,.28,0c.4.08.56.24.68.68h.11V2.74a1.24,1.24,0,0,1-.42,0L22.8,2.5l0,.12.19.06-.39,2h-.2l0,.12L23.51,5A1.2,1.2,0,0,1,23.91,5.15Z"/><path class="cls-2" d="M11.87,5.84l1,.7.38-.22-.06-.1L13,6.28l-.93-.63a.56.56,0,0,0,.12-.74c-.11-.19-.41-.47-1-.1l-.72.42.06.1.19-.08,1,1.78-.16.12.06.1.62-.36-.06-.1L12,6.87,11.54,6l.17-.08Zm-.38.06L11,5.08a1.54,1.54,0,0,1,.24-.16.68.68,0,0,1,.34-.11.47.47,0,0,1,.4.28c.19.32-.1.6-.28.71A1.12,1.12,0,0,1,11.49,5.91Z"/><path class="cls-2" d="M9.73,8.64l-.17.12-.63-.7.18-.14c.42-.38.53-.73.23-1.07a.62.62,0,0,0-.94,0l-.69.62.08.09.16-.12L9.32,9l-.13.15.08.09.54-.48ZM8.18,7.22A2,2,0,0,1,8.41,7a.46.46,0,0,1,.31-.13.52.52,0,0,1,.38.2A.5.5,0,0,1,9,7.81,1.26,1.26,0,0,1,8.85,8Z"/><path class="cls-2" d="M8.49,9.32a.44.44,0,0,1,0,.61.93.93,0,0,1-1,.13l-.05.1.63.38a.5.5,0,0,1,.1-.23c.11-.13.26-.12.39-.27a.68.68,0,0,0,0-1c-.67-.58-1.25.53-1.77.08a.33.33,0,0,1,0-.49.75.75,0,0,1,.87-.1l.06-.1-.6-.35A.45.45,0,0,1,7,8.29a.63.63,0,0,1-.14.08.63.63,0,0,0-.19.14.61.61,0,0,0,.07.89C7.36,9.92,8,8.87,8.49,9.32Z"/><path class="cls-2" d="M14,4.16c0-.32.09-.61.42-.73l.66,2-.18.09,0,.11.69-.23,0-.11-.2,0-.66-2c.33-.11.56.08.77.32l.08,0L15.28,3a1.2,1.2,0,0,1-.38.18l-.65.22a1.19,1.19,0,0,1-.41.08l.11.71Z"/><polygon class="cls-2" points="9.63 6.03 10.85 7.68 10.66 7.85 10.73 7.95 11.39 7.46 11.32 7.36 11.11 7.49 9.89 5.83 10.08 5.67 10.01 5.57 9.34 6.06 9.41 6.16 9.63 6.03"/><polygon class="cls-2" points="12.83 4.11 13.67 5.99 13.45 6.12 13.5 6.22 14.26 5.89 14.21 5.78 13.97 5.86 13.12 3.98 13.34 3.86 13.29 3.75 12.54 4.09 12.59 4.2 12.83 4.11"/><path class="cls-2" d="M27,6.06l-.05.11.65.32.05-.11-.17-.11.93-1.86c.31.16.33.45.31.78l.09,0L29,4.53a1.21,1.21,0,0,1-.4-.14L28,4.08a1.22,1.22,0,0,1-.35-.23l-.43.58.08.05c.25-.21.5-.37.81-.21l-.93,1.86Z"/><path class="cls-2" d="M19.06,3.53c-.08-.58-.55-1.16-1.12-1.09a1.15,1.15,0,0,0-.81,1.34,1.19,1.19,0,0,0,1,1.1h.1A1.15,1.15,0,0,0,19.06,3.53Zm-.82,1.2c-.54.07-.69-.53-.75-1s-.06-1.09.47-1.16H18c.47,0,.61.56.67,1S18.77,4.66,18.23,4.73Z"/><path class="cls-2" d="M35.31,15.61l-.07-.19-.12,0,.3,1.13a1.21,1.21,0,0,1,.06.42l.78,0,0-.12a.84.84,0,0,1-.8-.67,1.52,1.52,0,0,1-.05-.27l1-.27,0,.16c.06.21,0,.31-.27.45l0,.11.84-.22L37,16c-.32,0-.4-.05-.45-.26l0-.15.87-.23a1.65,1.65,0,0,1,.09.26.76.76,0,0,1-.32.91l0,.09.63-.32a1.21,1.21,0,0,1-.16-.39l-.29-1.1-.12,0,0,.2Z"/><path class="cls-2" d="M35.37,14.71a.44.44,0,0,1-.55-.26.93.93,0,0,1,.33-.94l-.06-.09-.63.39a.49.49,0,0,1,.16.19c.06.16,0,.29.06.47a.7.7,0,0,0,.65.47.68.68,0,0,0,.25,0c.83-.34.09-1.35.73-1.61a.33.33,0,0,1,.46.19c.14.33-.09.6-.3.82l.06.1.58-.38a.44.44,0,0,1-.15-.17.65.65,0,0,1,0-.16.62.62,0,0,0,0-.23.61.61,0,0,0-.82-.34C35.35,13.42,36,14.45,35.37,14.71Z"/><polygon class="cls-2" points="34.12 12.8 33.98 12.59 33.87 12.64 34.26 13.37 34.37 13.32 34.27 13.08 36.09 12.13 36.23 12.34 36.33 12.28 35.95 11.55 35.84 11.61 35.94 11.84 34.12 12.8"/><path class="cls-2" d="M32.13,6.82l-.63-.56-.08.09.14.15L30.19,8,30,7.93,29.95,8l.54.48.08-.09-.13-.15.65-.74.13.13.14.12L31,9l.33.29.08-.09L31.31,9,31.62,8a.56.56,0,0,0,.74-.11C32.51,7.67,32.68,7.31,32.13,6.82Zm0,.83c-.25.28-.6.1-.76,0a1.34,1.34,0,0,1-.17-.17l.64-.72A1.4,1.4,0,0,1,32,6.9.47.47,0,0,1,32.1,7.65Z"/><path class="cls-2" d="M33.87,8.58l-.61-.7L33.17,8l.11.17L31.74,9.48l-.15-.14-.09.08L32,10l.09-.08-.11-.17.71-.62.14.18c.37.43.72.54,1.06.24A.61.61,0,0,0,33.87,8.58Zm-.23.7a.5.5,0,0,1-.75-.07A1.43,1.43,0,0,1,32.75,9l.75-.65a2,2,0,0,1,.22.23A.46.46,0,0,1,33.64,9.29Z"/><path class="cls-2" d="M28.48,6.83l-.18-.09-.07.1,1,.65a1.25,1.25,0,0,1,.32.28l.57-.53L30,7.16a.84.84,0,0,1-1,0A1.42,1.42,0,0,1,28.74,7l.59-.87.13.09c.18.12.22.22.1.51l.09.06.48-.72L30,6c-.23.22-.33.22-.51.1L29.4,6l.5-.74a1.54,1.54,0,0,1,.24.14.75.75,0,0,1,.35.89l.1,0,.27-.66a1.22,1.22,0,0,1-.38-.19l-.94-.63-.07.1.15.13Z"/><path class="cls-2" d="M35.15,10.26l-.47-.7-.1.07.09.18L33,11l-.13-.15-.1.07.4.6.1-.07-.09-.18.82-.55a1,1,0,0,0,.09.16l.1.16L33.52,12l.25.37.1-.07-.07-.15.57-1a.56.56,0,0,0,.75.08C35.3,11.18,35.56,10.87,35.15,10.26Zm-.24.8c-.31.21-.6-.06-.72-.24a1.19,1.19,0,0,1-.12-.21l.8-.53a1.56,1.56,0,0,1,.17.23A.48.48,0,0,1,34.91,11.06Z"/><polygon class="cls-2" points="3.46 14.4 5.37 15.17 5.32 15.37 5.43 15.41 5.7 14.74 5.59 14.69 5.49 14.87 4.53 14.48 4.93 13.48 5.9 13.87 5.84 14.07 5.96 14.11 6.23 13.44 6.12 13.4 6.02 13.57 4.11 12.8 4.17 12.61 4.05 12.56 3.78 13.23 3.9 13.28 3.99 13.1 4.82 13.43 4.41 14.43 3.59 14.1 3.64 13.9 3.53 13.86 3.26 14.53 3.37 14.57 3.46 14.4"/><path class="cls-2" d="M3.34,16.86c-.26-.2-.47-.41-.38-.74l2,.5,0,.2.12,0,.17-.7-.12,0-.07.19-2-.5c.08-.34.37-.43.69-.48v-.1L3,15.18a1.2,1.2,0,0,1-.05.42l-.16.66a1.25,1.25,0,0,1-.15.4l.66.29Z"/><path class="cls-2" d="M34,31.68l-1.58-1.33.12-.17-.09-.08-.37.42.68,1.38-1.44-.53-.37.42.09.08.15-.13,1.18,1.1c.28.27.29.31.17.52l.09.08.47-.53L33,32.83c-.12.11-.24.16-.38,0L31.4,31.72h0l1.63.6.05-.06-.78-1.57h0l1.46,1.25-.12.17.09.08.49-.54-.09-.08Z"/><path class="cls-2" d="M37.4,22.73a.84.84,0,0,1,.43,1,1.62,1.62,0,0,1-.07.27l-1-.2,0-.16c0-.21.11-.28.44-.29l0-.11L36.36,23l0,.11c.3.13.34.22.3.43l0,.15-.88-.17a1.55,1.55,0,0,1,0-.28c.08-.4.24-.56.68-.68V22.5h-.71a1.23,1.23,0,0,1,0,.42L35.49,24l.12,0,.06-.19,2,.39v.2l.12,0L38,23.34a1.25,1.25,0,0,1,.13-.4l-.71-.32Z"/><path class="cls-2" d="M35.43,27.72h1.23l.19-.4-.11-.05-.09.14H35.52a.56.56,0,0,0-.31-.69c-.2-.1-.6-.16-.92.5l-.37.75L34,28l.11-.17,1.85.9-.07.19L36,29l.32-.65-.11-.05-.11.17L35.25,28a1.1,1.1,0,0,0,.09-.16Zm-.28.27-.86-.42a1.51,1.51,0,0,1,.11-.26.5.5,0,0,1,.44-.34.64.64,0,0,1,.28.07c.34.16.25.55.16.74A1.53,1.53,0,0,1,35.14,28Z"/><path class="cls-2" d="M37,24.92l-.06.09a.67.67,0,0,1,.3.74c-.1.31-.5.55-1.3.28-.63-.21-.83-.51-.73-.82s.51-.41.82-.46v-.12l-.76-.08a.39.39,0,0,1,0,.23.54.54,0,0,1-.09.15.76.76,0,0,0-.11.23c-.18.54.33,1.07.94,1.28a1.55,1.55,0,0,0,.48.08.85.85,0,0,0,.49-1.6Z"/><path class="cls-2" d="M35,29.28a.84.84,0,0,1,0,1,1.49,1.49,0,0,1-.17.22L34,30l.09-.13c.12-.18.21-.22.51-.1l.06-.09L34,29.16l-.06.09c.23.23.23.33.11.51l-.08.13-.75-.49a1.55,1.55,0,0,1,.14-.24.76.76,0,0,1,.89-.36l0-.1-.66-.26a1.2,1.2,0,0,1-.19.38l-.62.95.1.07.13-.15,1.72,1.13-.09.18.1.07.64-1a1.23,1.23,0,0,1,.27-.32l-.53-.57Z"/><path class="cls-2" d="M22.3,37c0-.58-.48-1.19-1.06-1.15a1.15,1.15,0,0,0-.88,1.29,1.17,1.17,0,0,0,1,1.15h.06A1.15,1.15,0,0,0,22.3,37Zm-.89,1.15c-.54,0-.66-.57-.69-1s0-1.09.54-1.13h0c.5,0,.61.59.64,1S21.95,38.08,21.41,38.12Z"/><path class="cls-2" d="M19.2,36.5c0-.22,0-.62-.77-.71l-.83-.1v.12l.2,0-.25,2h-.2V38l.72.09V38l-.2,0L18,37l.18,0,.19,0,.39,1.17.44.05v-.12l-.16,0L18.65,37C18.94,37,19.16,36.85,19.2,36.5Zm-.32,0c0,.37-.44.42-.65.39a1.13,1.13,0,0,1-.23,0l.12-1h.06l.23,0C18.74,36,18.92,36.13,18.88,36.5Z"/><path class="cls-2" d="M23.61,35.56l-1.07.22,0,.12.2,0,.41,2L23,38l0,.12.71-.14,0-.12-.2,0-.2-1,.16,0c.21,0,.31,0,.44.29l.11,0-.17-.85-.11,0c0,.32-.07.39-.28.44l-.15,0-.19-.93.22,0a.84.84,0,0,1,.92.42l.11,0-.31-.7A1.19,1.19,0,0,1,23.61,35.56Z"/><path class="cls-2" d="M16.69,35.51l-1.1-.28,0,.12.19.07-.51,2-.2,0,0,.12,1.13.29a1.23,1.23,0,0,1,.39.15l.36-.69-.11,0a.84.84,0,0,1-1,.37,1.37,1.37,0,0,1-.26-.09l.26-1,.16,0c.21.05.28.13.26.45l.11,0,.22-.84-.11,0c-.14.29-.24.32-.45.27l-.15,0,.22-.87a1.64,1.64,0,0,1,.27.05c.39.1.54.27.63.72h.11l0-.71A1.21,1.21,0,0,1,16.69,35.51Z"/><path class="cls-2" d="M14.41,34.75l-.81-.33,0,.11.18.1L13,36.54l-.2-.05,0,.11.88.36a1.19,1.19,0,0,0,.44.1.54.54,0,0,0,.54-.38.66.66,0,0,0-.31-.82h0a.54.54,0,0,0,.66-.3C15,35.34,15.06,35,14.41,34.75Zm-.14,1.75c-.16.39-.43.42-.8.26l-.2-.1.4-1,.21.08C14.23,35.89,14.41,36.16,14.27,36.5Zm.36-1.06c-.15.38-.5.28-.81.16l-.11,0,.33-.82.16.06C14.59,34.95,14.76,35.12,14.63,35.44Z"/><path class="cls-2" d="M3.55,24.65l1.22-.24c.2,0,.32,0,.38.18l.12,0-.13-.66-.12,0c0,.22-.08.3-.29.34l-1.2.23c-.4.08-.61-.1-.66-.38s.1-.53.47-.6l1.51-.29.06.19.12,0-.14-.71-.12,0,0,.2-1.52.3a.74.74,0,0,0,.1,1.46Z"/><path class="cls-2" d="M5.91,26.39a.59.59,0,0,1,0-.16.62.62,0,0,0,0-.23A.61.61,0,0,0,5,25.66C4.3,26,5,27,4.31,27.24A.44.44,0,0,1,3.76,27,.94.94,0,0,1,4.1,26L4,25.94l-.63.39a.5.5,0,0,1,.16.2c.06.16,0,.29.06.47a.7.7,0,0,0,.65.48.67.67,0,0,0,.25,0c.83-.33.1-1.35.74-1.61a.34.34,0,0,1,.46.19c.13.33-.09.6-.31.82l.06.1.58-.38A.44.44,0,0,1,5.91,26.39Z"/><path class="cls-2" d="M4.29,28a.21.21,0,0,0-.1.29.2.2,0,0,0,.18.11l.11,0A.21.21,0,1,0,4.29,28Z"/><path class="cls-2" d="M31.76,33.9l-1.34-1.56.14-.15-.08-.1-.44.35.45,1.47-1.33-.76-.44.35.08.09.17-.11,1,1.27c.24.31.23.35.08.55l.08.09.55-.44-.08-.09c-.13.09-.26.12-.38,0l-1-1.32h0l1.51.86.06-.05-.51-1.68h0L31.5,34.1l-.14.14.08.09.57-.46-.08-.09Z"/><path class="cls-2" d="M3.53,25.34a.22.22,0,0,0-.42.12.2.2,0,0,0,.2.15h.07A.2.2,0,0,0,3.53,25.34Z"/><path class="cls-2" d="M12.95,34.26l.19.08.06-.1L12.72,34l-1.21.94.24-1.52-.48-.28-.06.1.16.12-.84,1.37c-.21.33-.25.34-.48.27l-.06.1.61.36.06-.1c-.13-.09-.2-.2-.1-.37l.87-1.42h0l-.26,1.71.07,0,1.39-1.08h0l-.93,1.68-.19-.08-.06.1.63.37.06-.1L12,36.06Z"/><path class="cls-2" d="M26.86,36.23a.67.67,0,0,1-.36.71c-.3.12-.74,0-1.06-.8-.25-.61-.16-1,.15-1.09s.64.12.88.33l.1-.07-.43-.63a.38.38,0,0,1-.17.15.57.57,0,0,1-.17,0,.75.75,0,0,0-.25.06c-.52.21-.6.95-.36,1.54a1.13,1.13,0,0,0,1,.79.85.85,0,0,0,.32-.07.88.88,0,0,0,.49-1Z"/><polygon class="cls-2" points="9.09 31.31 9.25 31.43 9.34 31.35 8.84 30.83 8.75 30.91 8.87 31.07 8.23 31.69 7.48 30.91 8.13 30.29 8.28 30.42 8.37 30.34 7.87 29.82 7.78 29.9 7.9 30.06 6.41 31.48 6.26 31.35 6.17 31.43 6.67 31.96 6.76 31.88 6.64 31.71 7.39 31 8.13 31.78 7.38 32.49 7.22 32.37 7.14 32.45 7.64 32.97 7.73 32.89 7.6 32.73 9.09 31.31"/><path class="cls-2" d="M10.26,32.22,10,32l-.05.22L8.33,33.28a.25.25,0,0,1-.33,0l-.08.09.51.4.08-.1c-.13-.1-.16-.18-.08-.29l.08-.07.3-.21.6.48-.24.59L9,34.08l-.08.09.55.44.08-.1-.12-.12ZM8.92,33l1-.66h0l-.42,1.08Z"/><path class="cls-2" d="M6.29,30.33a.67.67,0,0,1-.78-.19c-.19-.26-.15-.73.54-1.21s.9-.37,1.09-.11,0,.66-.11.93l.09.08.51-.56a.39.39,0,0,1-.19-.13A.56.56,0,0,1,7.38,29a.75.75,0,0,0-.12-.23c-.33-.46-1.06-.37-1.58,0a1,1,0,0,0-.4,1.42.78.78,0,0,0,.66.32,1.19,1.19,0,0,0,.39-.07Z"/><path class="cls-2" d="M28.92,34.64a1.15,1.15,0,0,0-1.45-.57,1.15,1.15,0,0,0-.23,1.55,1.32,1.32,0,0,0,1.06.67.78.78,0,0,0,.39-.1A1.15,1.15,0,0,0,28.92,34.64Zm-.29,1.43c-.47.27-.84-.23-1.08-.63s-.48-1,0-1.25a.52.52,0,0,1,.27-.08c.34,0,.62.38.81.71S29.09,35.8,28.63,36.07Z"/><path class="cls-1" d="M19.55,17.79a22.53,22.53,0,0,1,4.78-1.47c3.12-.58,4.07-.35,4.6.22l-1,.19h0l0,0,0,.05v.06l0,.05,0,0h.27l.17,0a.45.45,0,0,0,.28.3.45.45,0,0,0,.15,0,.38.38,0,0,0,.32-.18,1,1,0,0,0,.14-.31h.3a5.88,5.88,0,0,1,.94.11c.7.14,1.38.46,1.46,1.12h0v.11c0,.08,0,.17,0,.32v.09l0,0c-1-.35-4.35,0-7.21,3.36a24.45,24.45,0,0,0-3.37,5.07A6.47,6.47,0,0,1,19,21.65a12.6,12.6,0,0,1,.2-2.57c.06-.33.12-.6.17-.79S19.55,17.79,19.55,17.79Z"/><path class="cls-3" d="M29,16.66l0,.06,0,.05A1.09,1.09,0,0,1,29,17a.21.21,0,0,1-.26.1c-.18-.08-.17-.15-.19-.24v0h-.32Z"/><path class="cls-4" d="M22.84,31.71a9.34,9.34,0,0,1-5.9-5.15,6.8,6.8,0,0,0-1.57-2.72,4.9,4.9,0,0,0-.67-.57l-.27-.17,0,0c-2.52-1.43-5.33-.32-7.12,2.11a13.93,13.93,0,0,0,13,9,13.68,13.68,0,0,0,6.61-1.67A13.34,13.34,0,0,1,22.84,31.71Z"/><path class="cls-3" d="M20,15.56a7.5,7.5,0,0,0,0-1.62,6.37,6.37,0,0,0-.56-2.07,5.23,5.23,0,0,0-.46-.8,4.69,4.69,0,0,0-.48-.59,3.69,3.69,0,0,0-.49-.4,7.35,7.35,0,0,0-.81-.5,6.85,6.85,0,0,0-.81-.36A6.08,6.08,0,0,0,15.57,9a5.58,5.58,0,0,0-.9-.09,6.07,6.07,0,0,0-1,.06,8.24,8.24,0,0,0-1.34.33,7,7,0,0,0-.88.39l-.31.15A13.91,13.91,0,0,1,34.21,20.32a13.61,13.61,0,0,1-1.66,6.58,12.91,12.91,0,0,1-6.19,1.69C23.6,28.45,22,27.47,21.58,27a23.91,23.91,0,0,1,2.16-3.58A16.24,16.24,0,0,1,26,20.85a9.1,9.1,0,0,1,3.51-2,7,7,0,0,1,1.12-.22s.43,0,.58,0l.47,0,.22,0,.23.11,0-.24s0-.39-.05-.55a1.3,1.3,0,0,0-.3-.63,2,2,0,0,0-.68-.44,4.73,4.73,0,0,0-2-.28,1.2,1.2,0,0,0-.68-.58,4.23,4.23,0,0,0-1.69-.22,13.84,13.84,0,0,0-2,.23,30.23,30.23,0,0,0-5.2,1.44A9.58,9.58,0,0,0,20,15.56Z"/><path class="cls-4" d="M22.4,29.63a8.37,8.37,0,0,1-4-4.4,8.65,8.65,0,0,1-.57-2.55c-.06-2.9-1.15-4.49-2-5.25-3.58-3.14-8.11.34-9.29,1.34a13.92,13.92,0,0,1,4-8.31A8.57,8.57,0,0,1,12.85,9.3a5.85,5.85,0,0,1,5.44,1.18h0l0,0,.09.08c.07.08.18.19.3.34a5.28,5.28,0,0,1,.79,1.37A7.69,7.69,0,0,1,19.27,18v0s-2.07,6.66,2.55,9.48h0a8.15,8.15,0,0,0,4.69,1.31,13,13,0,0,0,5.86-1.56,14.52,14.52,0,0,1-2,2.71A11.2,11.2,0,0,1,22.4,29.63Z"/><path class="cls-1" d="M22.88,31.54h0l.06,0,.23.09c.2.07.5.17.88.27a14.63,14.63,0,0,0,3.16.44A13.92,13.92,0,0,0,30,30.25a10.27,10.27,0,0,1-3.27.48,10,10,0,0,1-5.16-1.36,8.56,8.56,0,0,1-4-6.59v0c-.08-2.83-1.05-4.37-2-5.22a4.5,4.5,0,0,0-1.29-.82,3.38,3.38,0,0,0-.42-.14l-.16,0a6.65,6.65,0,0,0-5,.86A12.58,12.58,0,0,0,7.07,18.5l-.47.39L6.47,19l0,0q-.06.62-.06,1.26A14.14,14.14,0,0,0,7.21,25C8,24,10.93,20.9,14.47,22.93h0a5.88,5.88,0,0,1,2.59,3.52s.17.41.26.58a8.68,8.68,0,0,0,.94,1.4,9.8,9.8,0,0,0,4.61,3.1Z"/><path class="cls-2" d="M20.3,6.17A14.13,14.13,0,1,0,34.43,20.3,14.13,14.13,0,0,0,20.3,6.17Zm0,28a13.9,13.9,0,0,1-13-9c.61-.93,3.58-4.07,7.12-2.08h0l.05,0,.2.13a4.84,4.84,0,0,1,.67.57,6.83,6.83,0,0,1,1.56,2.72,9.35,9.35,0,0,0,5.89,5.15,12.81,12.81,0,0,0,4,.82A13.83,13.83,0,0,1,20.3,34.19Zm6.91-1.84a14.6,14.6,0,0,1-3.16-.44c-.38-.1-.68-.19-.88-.26l-.23-.08-.06,0h0a9.78,9.78,0,0,1-4.6-3.1A8.41,8.41,0,0,1,17.35,27c-.09-.18-.16-.32-.2-.42l0-.11v0h0a6,6,0,0,0-2.6-3.54h0c-3.54-2-6.53,1-7.27,2a13.87,13.87,0,0,1-.81-4.67q0-.64.06-1.26l0,0,.12-.11.47-.39a12.56,12.56,0,0,1,1.67-1.11,6.64,6.64,0,0,1,5-.86l.16,0a3.38,3.38,0,0,1,.42.14,4.47,4.47,0,0,1,1.28.82c.94.85,1.9,2.4,2,5.22h0a8.58,8.58,0,0,0,4,6.61,10,10,0,0,0,5.15,1.36A10.42,10.42,0,0,0,30,30.29,13.36,13.36,0,0,1,27.21,32.35Zm3.11-2.43a11.17,11.17,0,0,1-7.92-.32,8.42,8.42,0,0,1-4-4.39,8.7,8.7,0,0,1-.56-2.56c-.06-2.89-1.15-4.48-2-5.24-3.57-3.13-8.1.29-9.28,1.29a13.85,13.85,0,0,1,4-8.23,8.55,8.55,0,0,1,2.39-1.15A5.83,5.83,0,0,1,18.3,10.5h0l0,0,.09.08c.07.08.18.19.3.34a5.38,5.38,0,0,1,.78,1.38A7.66,7.66,0,0,1,19.25,18h0s-2.06,6.69,2.55,9.51h0a8.17,8.17,0,0,0,4.7,1.32,12.82,12.82,0,0,0,5.82-1.52A14,14,0,0,1,30.32,29.92ZM27.89,16.71h0l0,.06,0,.06v0l0,0,0,.05,0,0h.27l.17,0a.44.44,0,0,0,.28.3.45.45,0,0,0,.15,0,.38.38,0,0,0,.33-.17,1.1,1.1,0,0,0,.16-.32h.28a5.87,5.87,0,0,1,.94.1c.69.14,1.38.46,1.46,1.12h0v.11c0,.08,0,.17,0,.32v.05h0l0,0c-1-.35-4.35,0-7.2,3.36a24.31,24.31,0,0,0-3.37,5.06A6.43,6.43,0,0,1,19,21.65a12.58,12.58,0,0,1,.2-2.56c.06-.33.12-.6.17-.79s.16-.51.16-.51a22.49,22.49,0,0,1,4.77-1.47c3.11-.58,4.06-.34,4.57.2Zm1.13,0,0,.06h0l0,0A1,1,0,0,1,29,17a.2.2,0,0,1-.26.1c-.18-.08-.17-.15-.19-.24v0h-.3Zm-2.7,11.92C23.59,28.43,22,27.46,21.6,27a25.91,25.91,0,0,1,2.17-3.59c.33-.46.62-.82.82-1.08l.24-.29.06-.07,0,0h0a9.86,9.86,0,0,1,4.54-3.13,6.22,6.22,0,0,1,1.47-.26h.55l.2,0,.24,0,.13.06.1,0v-.24h0v-.06a3.72,3.72,0,0,0-.05-.47c-.11-.79-.88-1.12-1.59-1.26a6.29,6.29,0,0,0-1.35-.11l-.06-.1h0c-.41-.61-1.42-.71-2.35-.68a12.4,12.4,0,0,0-2,.24h0a27.54,27.54,0,0,0-5.15,1.42c1.56-4.78-1.18-7.08-1.19-7.09a6.25,6.25,0,0,0-7.23-.58A13.89,13.89,0,0,1,32.53,26.9,13.12,13.12,0,0,1,26.32,28.58Z"/><path class="cls-1" d="M306,26.83h2.39V18.74c0-1.41-.63-2.31-2.16-2.31A3,3,0,0,0,303.83,18V16.68h-2.37V26.83h2.37v-7c.23-.65.76-1.32,1.37-1.32s.78.36.78,1.07ZM296.53,25c-1.05,0-1.34-1.49-1.34-3.23s.29-3.21,1.34-3.21,1.36,1.49,1.36,3.21S297.6,25,296.53,25m0,2.1c2.67,0,3.82-2.52,3.82-5.33s-1.15-5.31-3.82-5.31-3.8,2.5-3.8,5.31,1.15,5.33,3.8,5.33m-7.22-.25h2.37V16.68h-2.37Zm1.18-11.34a1.43,1.43,0,0,0,1.45-1.43,1.45,1.45,0,1,0-1.45,1.43M287,27.08a2.48,2.48,0,0,0,1.66-.52l-.48-1.85a.71.71,0,0,1-.57.27c-.42,0-.57-.31-.57-.94V18.74h1.28V16.68H287V13.91h-2.37v2.77h-.95v2.06h.95V24.5c0,1.74.67,2.58,2.33,2.58m-6.42-2.65a1.47,1.47,0,0,1-1.28,1c-.82,0-1.22-.78-1.22-1.74s.4-1.72,1.22-1.72a1.5,1.5,0,0,1,1.28,1Zm0,2.39h2.37V19.75c0-2.27-1.34-3.32-3.42-3.32a4.84,4.84,0,0,0-3.42,1.34l.88,1.68a2.9,2.9,0,0,1,2.06-1c1.07,0,1.53.69,1.53,1.85v1.24a2.52,2.52,0,0,0-2.12-1.13c-1.6,0-2.75,1.24-2.75,3.3s1.15,3.38,2.75,3.38a2.53,2.53,0,0,0,2.12-1.22Zm-8.26-3.07c-.21.67-.69,1.22-1.2,1.22-1,0-1.34-1.43-1.34-3.21s.29-3.23,1.34-3.23c.5,0,1,.55,1.2,1.22Zm0,3.07h2.37v-14h-2.37v5.12a2.2,2.2,0,0,0-2-1.51c-2,0-3,2.14-3,5.33s1,5.31,3,5.31a2.29,2.29,0,0,0,2-1.51Zm-8.5,0h2.39V18.74c0-1.41-.63-2.31-2.16-2.31A3,3,0,0,0,261.64,18V16.68h-2.37V26.83h2.37v-7c.23-.65.76-1.32,1.37-1.32s.78.36.78,1.07Zm-8.38,0h2.39V16.68H255.4v7c-.23.65-.76,1.28-1.37,1.28s-.78-.34-.78-1V16.68h-2.37v8.11c0,1.45.61,2.29,2.14,2.29a2.83,2.83,0,0,0,2.37-1.53ZM246,25c-1.05,0-1.34-1.49-1.34-3.23s.29-3.21,1.34-3.21,1.37,1.49,1.37,3.21S247.06,25,246,25m0,2.1c2.67,0,3.82-2.52,3.82-5.33s-1.16-5.31-3.82-5.31-3.8,2.5-3.8,5.31,1.15,5.33,3.8,5.33m-10.65-.25H238v-6h3.34V18.53H238V15.15h3.49V12.82h-6.13Zm-7.94-8.46c1.15,0,1.41,1.36,1.41,2.5h-2.86c0-1.07.29-2.5,1.45-2.5m-3.74,3.38c0,3.11,1.39,5.33,4,5.33a4,4,0,0,0,3.09-1.62l-1.15-1.32a2.25,2.25,0,0,1-1.68,1c-1.34,0-2-1.13-2-2.62h5.14V21.7c0-3-1.07-5.27-3.63-5.27s-3.8,2.37-3.8,5.31m-6.52,0c0,3.09,1.43,5.33,3.86,5.33a3.27,3.27,0,0,0,2.46-.9l-.76-1.85a1.7,1.7,0,0,1-1.28.65c-1.24,0-1.85-1.47-1.85-3.23s.61-3.21,1.85-3.21a1.7,1.7,0,0,1,1.28.65l.76-1.85a3.45,3.45,0,0,0-2.46-.9c-2.44,0-3.86,2.23-3.86,5.31m-5,5.08h2.37V20a2.33,2.33,0,0,1,1.81-1.3,1.79,1.79,0,0,1,.46.08V16.45a2.72,2.72,0,0,0-2.27,1.64V16.68h-2.37Zm-4.74-8.46c1.15,0,1.41,1.36,1.41,2.5H206c0-1.07.29-2.5,1.45-2.5m-3.74,3.38c0,3.11,1.39,5.33,4,5.33a4,4,0,0,0,3.09-1.62l-1.15-1.32a2.25,2.25,0,0,1-1.68,1c-1.34,0-2-1.13-2-2.62h5.15V21.7c0-3-1.07-5.27-3.63-5.27s-3.8,2.37-3.8,5.31m-3.47,5.08h2.37V18.74c0-1.66-.88-2.31-2.14-2.31A3,3,0,0,0,198,18.11a1.9,1.9,0,0,0-2.08-1.68A3,3,0,0,0,193.53,18V16.68h-2.37V26.83h2.37v-7c.21-.61.74-1.32,1.37-1.32s.78.38.78,1.07v7.22h2.39v-7c.21-.61.71-1.32,1.37-1.32s.78.32.78,1.07Zm-12.93,0h2.37V18.74c0-1.66-.88-2.31-2.14-2.31a3,3,0,0,0-2.46,1.68A1.9,1.9,0,0,0,183,16.43,3,3,0,0,0,180.6,18V16.68h-2.37V26.83h2.37v-7c.21-.61.74-1.32,1.36-1.32s.78.38.78,1.07v7.22h2.39v-7c.21-.61.71-1.32,1.37-1.32s.78.32.78,1.07ZM173.3,25c-1,0-1.34-1.49-1.34-3.23s.29-3.21,1.34-3.21,1.37,1.49,1.37,3.21S174.37,25,173.3,25m0,2.1c2.67,0,3.82-2.52,3.82-5.33s-1.15-5.31-3.82-5.31-3.8,2.5-3.8,5.31,1.15,5.33,3.8,5.33m-8,0c2.33,0,3.15-2,3.55-3.61l-2.12-.78c-.19,1.15-.57,2-1.43,2-1.26,0-1.68-2-1.68-4.89s.42-4.89,1.68-4.89c.78,0,1.11.65,1.41,1.72l2.1-.78c-.44-1.49-1.24-3.3-3.51-3.3-3.07,0-4.39,3.07-4.39,7.24s1.32,7.24,4.39,7.24m-11.68-.25H156V18.74h1.28V16.68H156V15.63c0-.63.32-.94.8-.94a.85.85,0,0,1,.4.08l.38-1.91a3.7,3.7,0,0,0-1.39-.25c-1.6,0-2.56,1.09-2.56,3v1.05h-.92v2.06h.92ZM148.5,25c-1.05,0-1.34-1.49-1.34-3.23s.29-3.21,1.34-3.21,1.36,1.49,1.36,3.21S149.57,25,148.5,25m0,2.1c2.67,0,3.82-2.52,3.82-5.33s-1.15-5.31-3.82-5.31-3.8,2.5-3.8,5.31,1.15,5.33,3.8,5.33m-11.95-.25h2.37V20a2.33,2.33,0,0,1,1.81-1.3,1.79,1.79,0,0,1,.46.08V16.45a2.72,2.72,0,0,0-2.27,1.64V16.68h-2.37Zm-4.74-8.46c1.16,0,1.41,1.36,1.41,2.5h-2.86c0-1.07.29-2.5,1.45-2.5m-3.74,3.38c0,3.11,1.39,5.33,4,5.33a4,4,0,0,0,3.09-1.62L134,24.14a2.25,2.25,0,0,1-1.68,1c-1.34,0-2-1.13-2-2.62h5.15V21.7c0-3-1.07-5.27-3.63-5.27s-3.8,2.37-3.8,5.31m-5.72,2v-4c.21-.69.69-1.24,1.2-1.24,1.05,0,1.34,1.43,1.34,3.23S124.6,25,123.55,25c-.5,0-1-.52-1.2-1.22M120,26.83h2.37V25.57a2.29,2.29,0,0,0,2,1.51c2,0,3-2.06,3-5.31s-1-5.33-3-5.33a2.2,2.2,0,0,0-2,1.51V12.82H120Zm-3.88,0h2.37V18.74c0-1.66-.88-2.31-2.14-2.31a3,3,0,0,0-2.46,1.68,1.9,1.9,0,0,0-2.08-1.68A3,3,0,0,0,109.42,18V16.68H107V26.83h2.37v-7c.21-.61.74-1.32,1.37-1.32s.78.38.78,1.07v7.22H114v-7c.21-.61.71-1.32,1.36-1.32s.78.32.78,1.07Zm-12.9-2.39a1.47,1.47,0,0,1-1.28,1c-.82,0-1.22-.78-1.22-1.74s.4-1.72,1.22-1.72a1.5,1.5,0,0,1,1.28,1Zm0,2.39h2.37V19.75c0-2.27-1.34-3.32-3.42-3.32a4.84,4.84,0,0,0-3.42,1.34l.88,1.68a2.9,2.9,0,0,1,2.06-1c1.07,0,1.53.69,1.53,1.85v1.24a2.52,2.52,0,0,0-2.12-1.13c-1.6,0-2.75,1.24-2.75,3.3s1.15,3.38,2.75,3.38a2.53,2.53,0,0,0,2.12-1.22Zm-8.27,0h2.39V18.72c0-1.45-.63-2.29-2.16-2.29A3,3,0,0,0,92.78,18V12.82H90.41v14h2.37v-7c.23-.65.76-1.32,1.36-1.32s.78.34.78,1ZM86,27.08c2.33,0,3.15-2,3.55-3.61l-2.12-.78c-.19,1.15-.57,2-1.43,2-1.26,0-1.68-2-1.68-4.89s.42-4.89,1.68-4.89c.78,0,1.11.65,1.41,1.72l2.1-.78c-.44-1.49-1.24-3.3-3.51-3.3-3.07,0-4.39,3.07-4.39,7.24s1.32,7.24,4.39,7.24M74.13,25.5a1.55,1.55,0,1,0,1.55-1.55,1.58,1.58,0,0,0-1.55,1.55m-8.49.19a4.86,4.86,0,0,0,3.61,1.39A3.79,3.79,0,0,0,73.18,23c0-2.44-1.49-3.55-2.77-4.47-.9-.67-1.68-1.28-1.68-2.2A1.3,1.3,0,0,1,70,14.94a2.57,2.57,0,0,1,1.93.82l1-2a4.4,4.4,0,0,0-3-1.13A3.75,3.75,0,0,0,66,16.49c0,2.44,1.45,3.44,2.69,4.33.94.69,1.76,1.28,1.76,2.37a1.4,1.4,0,0,1-1.41,1.53,2.94,2.94,0,0,1-2.29-1.11Zm-4.11-.19a1.55,1.55,0,1,0,1.55-1.55,1.58,1.58,0,0,0-1.55,1.55m-9.22-2.73c0,3,1.91,4.3,4,4.3s4-1.3,4-4.3v-10H57.64V22.9c0,1.36-.55,1.85-1.34,1.85S55,24.26,55,22.9V12.82H52.31Z"/></svg>